<svg xmlns="http://www.w3.org/2000/svg" viewBox="0 0 1080 600"><defs><style>.cls-1{fill:#fff}</style></defs><polygon class="cls-1" points="1306.74 -211.83 1307.74 -211.83 1307.74 811.83 -227.74 811.83 -227.74 810.83 1306.86 810.83 1306.74 -211.83"/><g><g><path class="cls-1" d="M824.43,363.53c14.67,9.65,10.95,32.94-2.18,44.97-8.76,8.02-20.38,13.22-32.66,13.22l-51.09.03-1.73-11.68-25.37-.07-7.48,11.61-22.53.25c-9.09.1-17.58,2.9-26.66.25-10.1-2.95-19.39-10.32-20.55-21.36-1.36-12.9,5.14-25.21,15.07-33.46,14.36-11.92,33.84-14.66,51.5-8.42l-4.36,17.83c-8.33-5.73-16.83-7.12-26.18-3.45-7.27,2.85-13.95,9.97-15.15,18.95-1.14,8.53,4.06,14.34,12.46,15.41s15.5-2.12,22.82-6.26l-1.72,11.13,38.44-55.5,20.43-.05,11.15,60.53,14.39-60.41h30.6c7.17-.01,14.66,2.43,20.79,6.47ZM812.28,381.86c-1.21-10.19-15.55-11.39-22.88-10.43l-8.43,35.6c4.7.9,10.37.84,15.47-.59,10.44-2.93,17.2-13.1,15.84-24.58ZM735.21,396.67l-3.45-18.57-12.18,18.77,15.63-.2Z"/><polygon class="cls-1" points="926.47 391.84 949.37 357.06 970.06 357.04 965.6 421.62 946.36 421.6 949.04 385.06 924.13 421.6 914.64 421.49 907 383.78 891.86 421.71 826.88 421.52 834.78 387.8 842.55 356.92 886.92 357 883.73 371.03 859.09 371.14 856.25 382.08 879.48 382.41 876.69 395.9 852.8 396 849.88 407.58 875.35 407.62 875.48 413.44 900.36 357.25 919.43 357.04 926.47 391.84"/><path class="cls-1" d="M612.69,409.96l-25.91.1-7.41,11.8-20.94-.46,43.84-64.56,20.56.17,12.12,64.68h-20.54s-1.74-11.72-1.74-11.72ZM610.87,396.69l-3.28-19.14-12.02,18.89,15.3.24Z"/><polygon class="cls-1" points="1007.84 392.78 1000.66 421.71 980.95 421.7 987.54 392.43 970.93 357.2 992.97 357 1001.54 377.53 1019.7 356.97 1041.92 357.41 1007.84 392.78"/></g><g><path class="cls-1" d="M681.72,296.32l29.41-118.21,43.07-.04-36.3,147.78-134.97-.05,13.85-57.61c-5.75,8.98-10.22,16.95-17.15,24.45-23.32,25.21-55.61,38.24-90.05,36.92-23.48-.9-43.99-6.09-59.66-25.91l-6.25,22.22-95.49-.05,14.21-57.64c-19.05,37.65-56.73,62.23-104.57,61.54-31.47-.45-60.2-11.84-68.75-45.83-5.61,15.22-15.45,26.72-29.41,34.5-28.41,15.84-74.12,15.55-101.31-6.1l27-31.85c13.55,13.6,35.85,22.15,53.28,10.81,5.02-3.27,8.95-10.05,6.25-15.75-7.47-15.74-57.49-6.43-56.5-41.99.73-26.3,21.48-47.67,45.73-54.72,24.54-7.14,50.67-5.05,74.52,7.19l-24.27,30.6c-11.12-9.12-25.97-12.73-39.71-7.27-5.75,2.29-10.96,8.3-8.98,14.69.93,3.01,5.9,5.9,9.05,6.87l26.03,7.96c7.95,2.43,14.07,7.55,18.4,15.13,12.58-49.72,58.73-79.15,108.56-79.32,15.17-.05,29.36,2.37,42.55,9.15,21.43,11.01,31.49,31.46,29.85,55.28l15.16-61.02,43.01.13-14.28,57.57-13.95,56.64,43.83.17c-11.13-31.41,3.59-65.25,26.51-87.21,22.31-21.38,52.14-31.46,83.09-30.74,18.05.42,35.26,4.56,49.45,15.61,11.59,9.02,19.18,21.98,20.08,36.54l.92,15.01,15.81-63.74,43.45.13-28.85,114.27,44.05.07c.61,0,2.29-.28,2.39.13l.94,3.72ZM304.2,248.7c4-18.05-7.72-34.06-25.2-37.62-33.57-6.84-69.06,21.11-66.11,54.51,1.42,16.01,14.57,27.04,30.7,28.46,28.12,2.47,54.35-17.13,60.6-45.35ZM557.75,246.75c2.57-16.54-7.24-30.71-23.54-35.08-30.53-8.19-67.87,14.94-68.99,48.82-.55,16.61,10.64,29.59,26.83,32.69,30.23,5.79,61.04-16.4,65.7-46.43Z"/><polygon class="cls-1" points="927.62 266.54 879.5 266.71 872.86 292.39 923.71 292.49 915.5 325.83 821.61 325.74 858.03 178.06 951.44 178.01 943.67 210.47 893.16 210.47 886.91 234.5 935.18 234.65 927.62 266.54"/><polygon class="cls-1" points="838.63 235.07 830.58 267 783.32 266.96 768.75 325.76 725.41 325.75 762.08 177.98 856.43 178.06 848.74 210.41 797.68 210.53 791.36 234.87 838.63 235.07"/></g></g></svg>